<svg version="1.1" id="Layer_1" xmlns="http://www.w3.org/2000/svg" xmlns:xlink="http://www.w3.org/1999/xlink" x="0px" y="0px"
	 width="100%" viewBox="0 0 612 612" enable-background="new 0 0 612 612" xml:space="preserve">
<path fill="#FEFEFE" opacity="1.000000" stroke="none" 
	d="
M337.000000,613.000000 
	C224.666687,613.000000 112.833374,613.000000 1.000045,613.000000 
	C1.000030,409.000061 1.000030,205.000107 1.000015,1.000127 
	C204.999893,1.000085 408.999786,1.000085 612.999756,1.000042 
	C612.999878,204.999878 612.999878,408.999756 612.999939,612.999817 
	C521.166687,613.000000 429.333344,613.000000 337.000000,613.000000 
M409.277924,554.831909 
	C431.244507,550.901917 452.994263,546.114563 473.868713,538.016785 
	C487.428070,532.756714 500.562866,526.690308 511.124847,516.292847 
	C515.510986,511.975067 518.683838,506.915314 518.695129,500.522766 
	C518.750183,469.377319 518.728943,438.231720 518.720886,407.086182 
	C518.720520,405.530762 518.591736,403.975433 518.551453,403.067932 
	C510.027344,408.458588 502.010284,414.520630 493.172638,418.942719 
	C458.122162,436.481018 420.139587,443.280823 381.699677,447.874573 
	C343.732208,452.411865 305.615204,453.145325 267.449463,450.921600 
	C231.980682,448.854980 196.856888,444.348419 162.570511,434.734955 
	C138.582169,428.008911 115.348419,419.519012 96.259613,402.580078 
	C96.135597,402.470062 95.685600,402.727417 95.254951,402.851532 
	C95.254951,432.968140 95.765747,463.124237 95.019920,493.249207 
	C94.691635,506.508911 99.609680,516.147461 110.363113,522.444397 
	C121.497192,528.964233 132.997757,535.317139 145.085236,539.666504 
	C186.495148,554.566711 229.770432,559.719543 273.445435,561.955139 
	C318.660950,564.269592 363.674347,562.118774 409.277924,554.831909 
M389.355133,429.871002 
	C417.263214,426.078217 444.862579,420.902832 471.371155,411.052399 
	C485.932373,405.641541 500.060303,399.374390 511.325256,388.188629 
	C515.576233,383.967499 518.686707,379.015594 518.701477,372.835999 
	C518.777832,340.858643 518.733154,308.881012 518.723816,276.903473 
	C518.723572,276.152252 518.642090,275.401031 518.581726,274.359833 
	C513.390320,278.168121 508.781952,281.936005 503.805054,285.129547 
	C486.519196,296.221436 467.300690,302.737885 447.622375,307.902954 
	C403.547760,319.471436 358.558777,323.764435 313.120789,324.081604 
	C261.312134,324.443237 210.010223,320.256958 159.923233,306.063293 
	C139.517990,300.280823 119.745239,292.942291 102.630966,279.887177 
	C100.339996,278.139557 98.160469,276.245911 95.231232,273.848480 
	C95.231232,276.795013 95.230774,278.752625 95.231300,280.710205 
	C95.238998,309.533478 95.590263,338.362793 95.079636,367.176880 
	C94.885025,378.158569 98.652267,386.743164 107.444168,392.306671 
	C117.916176,398.933319 128.746231,405.473175 140.247131,409.909180 
	C182.489899,426.202637 226.921707,431.478333 271.767609,433.978180 
	C310.780670,436.152924 349.686401,434.723541 389.355133,429.871002 
M146.495850,174.013138 
	C128.190109,167.690277 110.644989,159.947586 95.241333,145.687805 
	C95.241333,148.651779 95.241104,150.393127 95.241356,152.134491 
	C95.245529,180.957932 95.640419,209.789200 95.062126,238.600952 
	C94.830132,250.159485 98.722481,259.170715 108.064896,264.938934 
	C119.034958,271.712097 130.407669,278.276764 142.394623,282.875641 
	C177.651550,296.402252 214.743652,301.745514 252.156891,304.827454 
	C297.947296,308.599426 343.694733,307.818634 389.286713,301.944580 
	C420.039062,297.982452 450.360840,292.022125 479.192993,280.109894 
	C491.240753,275.132294 503.130066,269.537262 511.794739,259.496887 
	C515.170471,255.585205 518.358032,249.938431 518.450806,245.021896 
	C519.048218,213.390549 518.767395,181.742538 518.753113,150.100006 
	C518.752625,149.029755 518.520081,147.959610 518.310547,146.157578 
	C505.626007,157.865829 491.175415,165.236847 475.836395,170.979492 
	C435.365204,186.131165 393.108765,192.112091 350.294617,194.910065 
	C317.171478,197.074692 284.036224,196.810608 250.947128,193.989929 
	C215.704956,190.985703 180.923172,185.509735 146.495850,174.013138 
M504.747681,93.725639 
	C494.066284,85.217255 481.873840,79.509300 469.157990,74.900146 
	C428.364227,60.113529 385.842438,54.696018 342.849182,52.165077 
	C307.020416,50.055893 271.238159,51.130970 235.568283,55.095428 
	C207.400757,58.226048 179.551636,63.119076 152.607315,72.156563 
	C136.147736,77.677322 120.033684,84.070396 106.818558,95.896370 
	C91.320412,109.765388 91.548927,125.763336 107.291695,139.373306 
	C116.877968,147.660858 127.995918,153.318680 139.659561,157.874969 
	C178.206497,172.932938 218.648666,178.778580 259.590240,181.852386 
	C290.868011,184.200684 322.183502,184.150528 353.474640,181.936813 
	C387.588959,179.523376 421.344788,174.795242 454.185699,164.918884 
	C472.076660,159.538467 489.622925,153.123047 504.438782,141.256409 
	C523.267090,126.176025 523.435242,110.085808 504.747681,93.725639 
z"/>
<path fill="#251F21" opacity="1.000000" stroke="none" 
	d="
M408.845215,554.891357 
	C363.674347,562.118774 318.660950,564.269592 273.445435,561.955139 
	C229.770432,559.719543 186.495148,554.566711 145.085236,539.666504 
	C132.997757,535.317139 121.497192,528.964233 110.363113,522.444397 
	C99.609680,516.147461 94.691635,506.508911 95.019920,493.249207 
	C95.765747,463.124237 95.254951,432.968140 95.254951,402.851532 
	C95.685600,402.727417 96.135597,402.470062 96.259613,402.580078 
	C115.348419,419.519012 138.582169,428.008911 162.570511,434.734955 
	C196.856888,444.348419 231.980682,448.854980 267.449463,450.921600 
	C305.615204,453.145325 343.732208,452.411865 381.699677,447.874573 
	C420.139587,443.280823 458.122162,436.481018 493.172638,418.942719 
	C502.010284,414.520630 510.027344,408.458588 518.551453,403.067932 
	C518.591736,403.975433 518.720520,405.530762 518.720886,407.086182 
	C518.728943,438.231720 518.750183,469.377319 518.695129,500.522766 
	C518.683838,506.915314 515.510986,511.975067 511.124847,516.292847 
	C500.562866,526.690308 487.428070,532.756714 473.868713,538.016785 
	C452.994263,546.114563 431.244507,550.901917 408.845215,554.891357 
M492.236816,482.820282 
	C494.528259,481.483185 496.994019,480.370026 499.068878,478.754761 
	C501.943695,476.516663 502.813995,473.024811 500.356018,470.497864 
	C498.687897,468.782928 495.077820,467.655273 492.765717,468.175171 
	C489.340668,468.945312 486.169678,471.214844 483.123474,473.203003 
	C479.632477,475.481415 479.359924,480.378204 482.404602,483.104309 
	C485.380066,485.768341 488.493927,485.039246 492.236816,482.820282 
M464.193237,494.442596 
	C467.786041,493.157440 471.514801,492.154358 474.932922,490.506775 
	C478.268524,488.898956 479.070221,485.710175 477.724487,482.399048 
	C476.444611,479.249939 473.772308,477.897034 470.411652,478.825562 
	C467.537415,479.619690 464.789276,480.859741 461.935364,481.740601 
	C458.324280,482.855103 456.006439,485.037445 456.494720,488.957245 
	C456.975220,492.814392 459.529663,494.681091 464.193237,494.442596 
M434.077637,500.388123 
	C437.957031,502.193909 449.142944,500.734009 451.645172,497.471954 
	C452.930786,495.795990 453.680145,492.644135 452.976257,490.809906 
	C452.290192,489.021912 449.488739,487.058655 447.533417,486.968719 
	C444.350677,486.822327 441.064911,488.006256 437.886627,488.865417 
	C431.616364,490.560394 430.209808,494.162933 434.077637,500.388123 
z"/>
<path fill="#251F21" opacity="1.000000" stroke="none" 
	d="
M388.912354,429.919128 
	C349.686401,434.723541 310.780670,436.152924 271.767609,433.978180 
	C226.921707,431.478333 182.489899,426.202637 140.247131,409.909180 
	C128.746231,405.473175 117.916176,398.933319 107.444168,392.306671 
	C98.652267,386.743164 94.885025,378.158569 95.079636,367.176880 
	C95.590263,338.362793 95.238998,309.533478 95.231300,280.710205 
	C95.230774,278.752625 95.231232,276.795013 95.231232,273.848480 
	C98.160469,276.245911 100.339996,278.139557 102.630966,279.887177 
	C119.745239,292.942291 139.517990,300.280823 159.923233,306.063293 
	C210.010223,320.256958 261.312134,324.443237 313.120789,324.081604 
	C358.558777,323.764435 403.547760,319.471436 447.622375,307.902954 
	C467.300690,302.737885 486.519196,296.221436 503.805054,285.129547 
	C508.781952,281.936005 513.390320,278.168121 518.581726,274.359833 
	C518.642090,275.401031 518.723572,276.152252 518.723816,276.903473 
	C518.733154,308.881012 518.777832,340.858643 518.701477,372.835999 
	C518.686707,379.015594 515.576233,383.967499 511.325256,388.188629 
	C500.060303,399.374390 485.932373,405.641541 471.371155,411.052399 
	C444.862579,420.902832 417.263214,426.078217 388.912354,429.919128 
M488.692963,342.222015 
	C486.789368,343.238495 484.136597,343.795105 483.162415,345.382172 
	C481.791504,347.615631 480.432465,351.209167 481.354187,353.116425 
	C482.275146,355.021881 486.348663,356.930298 488.440643,356.413025 
	C492.326813,355.452118 496.294525,353.274200 499.201569,350.519531 
	C500.776062,349.027588 501.183533,344.983459 500.409241,342.659882 
	C499.387817,339.594574 496.084839,338.776550 492.842163,340.000519 
	C491.616577,340.463074 490.515747,341.256104 488.692963,342.222015 
M473.179382,350.860931 
	C468.906372,352.054749 464.524261,352.961151 460.393311,354.529175 
	C456.792633,355.895966 455.444885,358.995117 456.928009,362.664062 
	C458.374451,366.242401 461.203735,367.592407 464.994110,366.332855 
	C467.825256,365.392029 470.891907,364.778992 473.353729,363.226898 
	C475.361633,361.960968 477.870758,359.536469 477.895050,357.597260 
	C477.922333,355.420807 475.407349,353.212402 473.179382,350.860931 
M443.326263,372.885773 
	C445.546875,372.231567 447.874054,371.813873 449.964905,370.871735 
	C453.781067,369.152222 455.038910,364.369598 452.387665,361.293884 
	C448.082397,356.299316 443.208069,359.982910 438.580292,360.814148 
	C435.165833,361.427429 432.168030,362.688904 431.758087,366.829742 
	C431.213501,372.330719 435.418427,374.772736 443.326263,372.885773 
z"/>
<path fill="#251F21" opacity="1.000000" stroke="none" 
	d="
M146.866608,174.151199 
	C180.923172,185.509735 215.704956,190.985703 250.947128,193.989929 
	C284.036224,196.810608 317.171478,197.074692 350.294617,194.910065 
	C393.108765,192.112091 435.365204,186.131165 475.836395,170.979492 
	C491.175415,165.236847 505.626007,157.865829 518.310547,146.157578 
	C518.520081,147.959610 518.752625,149.029755 518.753113,150.100006 
	C518.767395,181.742538 519.048218,213.390549 518.450806,245.021896 
	C518.358032,249.938431 515.170471,255.585205 511.794739,259.496887 
	C503.130066,269.537262 491.240753,275.132294 479.192993,280.109894 
	C450.360840,292.022125 420.039062,297.982452 389.286713,301.944580 
	C343.694733,307.818634 297.947296,308.599426 252.156891,304.827454 
	C214.743652,301.745514 177.651550,296.402252 142.394623,282.875641 
	C130.407669,278.276764 119.034958,271.712097 108.064896,264.938934 
	C98.722481,259.170715 94.830132,250.159485 95.062126,238.600952 
	C95.640419,209.789200 95.245529,180.957932 95.241356,152.134491 
	C95.241104,150.393127 95.241333,148.651779 95.241333,145.687805 
	C110.644989,159.947586 128.190109,167.690277 146.866608,174.151199 
M431.996979,237.452637 
	C431.526367,243.574066 433.978882,246.682495 439.136292,245.902023 
	C442.713013,245.360733 446.519104,244.687119 449.574249,242.939224 
	C451.544708,241.811890 453.305450,238.652679 453.350555,236.368332 
	C453.384766,234.635559 450.598053,231.379715 449.007721,231.342865 
	C442.971985,231.203049 436.762451,231.656189 431.996979,237.452637 
M498.783661,212.723328 
	C492.465424,209.333344 488.674896,215.086273 483.916840,217.032745 
	C480.351776,218.491180 479.353241,221.968811 481.077240,225.387421 
	C482.895966,228.993820 486.094696,230.054581 489.885254,228.186478 
	C492.407440,226.943481 494.932770,225.678726 497.329895,224.215958 
	C502.228577,221.226776 502.747772,218.132278 498.783661,212.723328 
M478.244598,228.607513 
	C476.530884,223.341583 473.914276,221.840500 469.005402,223.448761 
	C466.170837,224.377457 463.341400,225.357819 460.600952,226.528625 
	C457.036133,228.051636 455.478973,230.801590 456.855438,234.572510 
	C458.195740,238.244339 461.014160,239.637924 464.786346,238.499832 
	C467.798981,237.590881 471.011353,236.856750 473.607208,235.211975 
	C475.583588,233.959702 476.731689,231.400238 478.244598,228.607513 
z"/>
<path fill="#251F21" opacity="1.000000" stroke="none" 
	d="
M505.013489,93.963455 
	C523.435242,110.085808 523.267090,126.176025 504.438782,141.256409 
	C489.622925,153.123047 472.076660,159.538467 454.185699,164.918884 
	C421.344788,174.795242 387.588959,179.523376 353.474640,181.936813 
	C322.183502,184.150528 290.868011,184.200684 259.590240,181.852386 
	C218.648666,178.778580 178.206497,172.932938 139.659561,157.874969 
	C127.995918,153.318680 116.877968,147.660858 107.291695,139.373306 
	C91.548927,125.763336 91.320412,109.765388 106.818558,95.896370 
	C120.033684,84.070396 136.147736,77.677322 152.607315,72.156563 
	C179.551636,63.119076 207.400757,58.226048 235.568283,55.095428 
	C271.238159,51.130970 307.020416,50.055893 342.849182,52.165077 
	C385.842438,54.696018 428.364227,60.113529 469.157990,74.900146 
	C481.873840,79.509300 494.066284,85.217255 505.013489,93.963455 
z"/>
<path fill="#F4F4F4" opacity="1.000000" stroke="none" 
	d="
M491.896027,482.985229 
	C488.493927,485.039246 485.380066,485.768341 482.404602,483.104309 
	C479.359924,480.378204 479.632477,475.481415 483.123474,473.203003 
	C486.169678,471.214844 489.340668,468.945312 492.765717,468.175171 
	C495.077820,467.655273 498.687897,468.782928 500.356018,470.497864 
	C502.813995,473.024811 501.943695,476.516663 499.068878,478.754761 
	C496.994019,480.370026 494.528259,481.483185 491.896027,482.985229 
z"/>
<path fill="#F5F5F5" opacity="1.000000" stroke="none" 
	d="
M463.818085,494.518616 
	C459.529663,494.681091 456.975220,492.814392 456.494720,488.957245 
	C456.006439,485.037445 458.324280,482.855103 461.935364,481.740601 
	C464.789276,480.859741 467.537415,479.619690 470.411652,478.825562 
	C473.772308,477.897034 476.444611,479.249939 477.724487,482.399048 
	C479.070221,485.710175 478.268524,488.898956 474.932922,490.506775 
	C471.514801,492.154358 467.786041,493.157440 463.818085,494.518616 
z"/>
<path fill="#F6F5F6" opacity="1.000000" stroke="none" 
	d="
M433.741089,500.164795 
	C430.209808,494.162933 431.616364,490.560394 437.886627,488.865417 
	C441.064911,488.006256 444.350677,486.822327 447.533417,486.968719 
	C449.488739,487.058655 452.290192,489.021912 452.976257,490.809906 
	C453.680145,492.644135 452.930786,495.795990 451.645172,497.471954 
	C449.142944,500.734009 437.957031,502.193909 433.741089,500.164795 
z"/>
<path fill="#F4F4F4" opacity="1.000000" stroke="none" 
	d="
M489.025513,342.060242 
	C490.515747,341.256104 491.616577,340.463074 492.842163,340.000519 
	C496.084839,338.776550 499.387817,339.594574 500.409241,342.659882 
	C501.183533,344.983459 500.776062,349.027588 499.201569,350.519531 
	C496.294525,353.274200 492.326813,355.452118 488.440643,356.413025 
	C486.348663,356.930298 482.275146,355.021881 481.354187,353.116425 
	C480.432465,351.209167 481.791504,347.615631 483.162415,345.382172 
	C484.136597,343.795105 486.789368,343.238495 489.025513,342.060242 
z"/>
<path fill="#F6F6F6" opacity="1.000000" stroke="none" 
	d="
M473.588928,350.939392 
	C475.407349,353.212402 477.922333,355.420807 477.895050,357.597260 
	C477.870758,359.536469 475.361633,361.960968 473.353729,363.226898 
	C470.891907,364.778992 467.825256,365.392029 464.994110,366.332855 
	C461.203735,367.592407 458.374451,366.242401 456.928009,362.664062 
	C455.444885,358.995117 456.792633,355.895966 460.393311,354.529175 
	C464.524261,352.961151 468.906372,352.054749 473.588928,350.939392 
z"/>
<path fill="#F5F4F5" opacity="1.000000" stroke="none" 
	d="
M442.926941,372.973083 
	C435.418427,374.772736 431.213501,372.330719 431.758087,366.829742 
	C432.168030,362.688904 435.165833,361.427429 438.580292,360.814148 
	C443.208069,359.982910 448.082397,356.299316 452.387665,361.293884 
	C455.038910,364.369598 453.781067,369.152222 449.964905,370.871735 
	C447.874054,371.813873 445.546875,372.231567 442.926941,372.973083 
z"/>
<path fill="#F4F4F4" opacity="1.000000" stroke="none" 
	d="
M432.139343,237.114624 
	C436.762451,231.656189 442.971985,231.203049 449.007721,231.342865 
	C450.598053,231.379715 453.384766,234.635559 453.350555,236.368332 
	C453.305450,238.652679 451.544708,241.811890 449.574249,242.939224 
	C446.519104,244.687119 442.713013,245.360733 439.136292,245.902023 
	C433.978882,246.682495 431.526367,243.574066 432.139343,237.114624 
z"/>
<path fill="#F6F6F6" opacity="1.000000" stroke="none" 
	d="
M499.076111,212.939911 
	C502.747772,218.132278 502.228577,221.226776 497.329895,224.215958 
	C494.932770,225.678726 492.407440,226.943481 489.885254,228.186478 
	C486.094696,230.054581 482.895966,228.993820 481.077240,225.387421 
	C479.353241,221.968811 480.351776,218.491180 483.916840,217.032745 
	C488.674896,215.086273 492.465424,209.333344 499.076111,212.939911 
z"/>
<path fill="#F6F6F6" opacity="1.000000" stroke="none" 
	d="
M478.246460,229.014923 
	C476.731689,231.400238 475.583588,233.959702 473.607208,235.211975 
	C471.011353,236.856750 467.798981,237.590881 464.786346,238.499832 
	C461.014160,239.637924 458.195740,238.244339 456.855438,234.572510 
	C455.478973,230.801590 457.036133,228.051636 460.600952,226.528625 
	C463.341400,225.357819 466.170837,224.377457 469.005402,223.448761 
	C473.914276,221.840500 476.530884,223.341583 478.246460,229.014923 
z"/>
</svg>