<svg version="1.1" id="Layer_1" xmlns="http://www.w3.org/2000/svg" xmlns:xlink="http://www.w3.org/1999/xlink" x="0px" y="0px"
	 width="100%" viewBox="0 0 480 352" enable-background="new 0 0 480 352" xml:space="preserve">
<path fill="#000000" opacity="1.000000" stroke="none" 
	d="
M316.333435,260.199036 
	C300.541962,251.098022 285.109131,242.185104 269.676971,233.271103 
	C269.244171,233.021103 268.822327,232.752167 268.388245,232.504501 
	C266.228455,231.272385 263.991852,230.364502 262.255554,232.998917 
	C260.345886,235.896423 262.684906,237.290543 264.664398,238.491043 
	C269.363220,241.340775 274.157288,244.033508 278.914734,246.786514 
	C289.151276,252.710190 299.315216,258.765594 309.667633,264.479401 
	C313.137451,266.394501 313.728729,268.860474 313.071716,272.313568 
	C310.623016,285.183167 299.292572,287.477936 287.924133,282.939453 
	C276.042358,278.196045 264.755341,271.962982 253.207031,266.383820 
	C252.007370,265.804260 250.839462,265.121735 249.584961,264.701477 
	C247.582245,264.030548 245.478149,263.795990 244.505905,266.241486 
	C243.613022,268.487427 244.688416,270.090820 246.768936,271.094635 
	C252.318939,273.772491 257.880341,276.427124 263.414307,279.137787 
	C270.411591,282.565186 277.386230,286.038849 284.326385,289.470642 
	C280.083710,300.059875 270.112305,304.363190 260.545532,303.900940 
	C248.827377,303.334717 237.614288,300.073181 226.595276,296.192871 
	C226.020935,295.990601 225.559586,295.467499 225.197830,295.204437 
	C224.908737,293.394073 225.958496,292.409302 226.765549,291.425720 
	C236.717163,279.297363 228.783829,259.220062 211.403000,256.464172 
	C207.869019,255.903809 206.681610,254.886368 206.630722,251.260025 
	C206.465057,239.457855 198.539383,230.294586 186.865509,228.434509 
	C183.531403,227.903259 183.149231,226.798370 183.227554,223.608810 
	C183.439575,214.976517 179.404800,208.178909 172.213028,203.537094 
	C165.750275,199.365784 158.844925,198.898376 151.771606,202.282593 
	C147.609528,204.273926 145.573685,208.200623 142.913284,211.578445 
	C142.521500,212.075912 141.946014,212.428696 140.751968,213.450470 
	C137.410492,205.807373 132.620560,199.893234 124.553856,197.451721 
	C116.271675,194.945023 109.600624,197.892014 103.491814,203.807861 
	C98.136871,197.386032 93.052162,191.270325 87.943962,185.174316 
	C86.583481,183.550751 87.302269,182.073898 88.142990,180.580887 
	C104.160339,152.135941 120.183456,123.694221 136.189224,95.242752 
	C137.263855,93.332512 138.420990,91.647079 140.801590,93.425407 
	C151.715240,101.578018 164.698090,102.995079 177.559769,104.844994 
	C178.172806,104.933167 178.743469,105.315979 179.290451,105.543518 
	C179.855408,107.876343 178.163040,109.085701 177.178329,110.491631 
	C171.060959,119.225929 164.982086,127.977173 159.549271,137.168640 
	C156.916672,141.622559 155.694504,146.476807 155.742050,151.470825 
	C155.820724,159.734024 162.440918,164.216385 171.887146,163.441544 
	C189.315445,162.011978 202.872894,153.379929 213.387421,140.202087 
	C218.368973,133.958725 223.923203,130.018250 231.461197,128.129593 
	C234.255646,127.429428 236.559967,127.575386 239.103104,128.847321 
	C283.447998,151.026093 323.883453,179.080261 361.971466,210.640198 
	C369.247437,216.669128 370.303802,224.346542 365.421448,231.475952 
	C361.063110,237.840179 351.658325,239.509048 343.863770,234.888580 
	C325.664795,224.100555 307.580780,213.118561 289.448975,202.217209 
	C288.164032,201.444687 286.887329,200.655701 285.574463,199.933136 
	C283.348999,198.708282 280.924469,197.161148 279.127808,200.321915 
	C277.311493,203.517258 280.135406,204.804947 282.131409,206.131500 
	C284.902435,207.973145 287.848236,209.550476 290.704254,211.265884 
	C304.983185,219.842178 319.234344,228.465042 333.548981,236.981323 
	C337.140839,239.118240 341.112305,240.589432 340.351379,246.111984 
	C339.560822,251.849854 337.903442,256.976105 332.244232,259.516052 
	C327.257141,261.754333 321.991730,262.163391 316.333435,260.199036 
z"/>
<path fill="#000000" opacity="1.000000" stroke="none" 
	d="
M215.905273,88.665062 
	C247.048874,83.406578 277.582062,83.239777 307.808594,91.877380 
	C318.578308,94.954964 329.375092,96.010078 340.173187,91.974724 
	C342.730438,91.019043 344.152344,92.173515 345.376709,94.361366 
	C360.990875,122.262947 376.656250,150.135895 392.308868,178.015930 
	C393.209290,179.619720 394.369720,181.215302 392.555634,182.947708 
	C385.465057,189.718994 379.019806,197.186966 370.436707,202.311829 
	C367.157806,204.269638 364.933746,203.879776 362.061401,201.522858 
	C324.470795,170.677750 284.457184,143.502609 240.859451,121.760941 
	C237.486679,120.078979 234.417587,119.306610 230.934830,120.930016 
	C230.340393,121.207108 229.660294,121.313660 229.010468,121.456795 
	C220.469269,123.338089 213.966187,127.507202 208.438416,134.843384 
	C200.189819,145.790558 189.268890,153.806992 175.014206,155.840988 
	C174.849564,155.864487 174.688354,155.930801 174.524200,155.936127 
	C170.804611,156.056808 166.443878,157.783920 163.891739,153.925278 
	C161.433411,150.208450 163.215668,146.040878 164.996628,142.533844 
	C170.595215,131.509186 178.097336,121.682953 185.168198,111.594597 
	C187.844818,107.775711 190.965088,104.225586 193.285233,100.207687 
	C198.297485,91.527748 207.036026,90.507294 215.905273,88.665062 
z"/>
<path fill="#000000" opacity="1.000000" stroke="none" 
	d="
M433.427917,177.478683 
	C426.710419,181.555267 420.188843,185.267303 413.941467,189.394501 
	C409.975220,192.014725 407.876282,191.002167 405.699280,187.109100 
	C389.932190,158.912827 374.018219,130.798737 358.150848,102.658554 
	C354.061310,95.405891 349.984161,88.146202 345.879639,80.902016 
	C341.834076,73.761902 341.960175,73.241539 349.120575,68.891769 
	C356.094543,64.655266 363.077972,60.434303 370.051361,56.196861 
	C375.219971,53.056110 375.968597,53.173634 378.957428,58.450817 
	C390.363098,78.589203 401.725769,98.751968 413.079437,118.919746 
	C421.247467,133.428741 429.353394,147.972717 437.529755,162.477005 
	C442.722809,171.689117 442.757965,171.669296 433.427917,177.478683 
z"/>
<path fill="#000000" opacity="1.000000" stroke="none" 
	d="
M111.895920,123.820305 
	C99.857513,145.183594 87.932739,166.190369 76.214622,187.311768 
	C73.912369,191.461472 71.630104,191.684158 67.868546,189.266769 
	C60.163002,184.314819 52.331425,179.542252 44.379807,174.996567 
	C40.009010,172.497925 40.313778,169.668945 42.450050,165.907898 
	C53.062901,147.223190 63.567982,128.477295 74.126099,109.761467 
	C83.783997,92.641411 93.555336,75.584244 103.060791,58.380085 
	C105.318703,54.293427 107.338211,53.145222 111.594360,55.936146 
	C119.110748,60.864952 126.891739,65.404648 134.692886,69.878975 
	C138.854523,72.265877 139.736664,74.791588 137.201950,79.151360 
	C128.662704,93.839088 120.431137,108.705719 111.895920,123.820305 
z"/>
<path fill="#000000" opacity="1.000000" stroke="none" 
	d="
M145.657715,267.944763 
	C138.461029,271.432343 132.129578,270.219330 127.435211,264.747864 
	C122.556190,259.061127 122.087448,252.244736 126.557175,246.006454 
	C134.405731,235.052399 142.421204,224.217361 150.420837,213.372345 
	C155.607605,206.340698 161.936264,205.215927 169.007187,209.943451 
	C175.934845,214.575150 178.386780,223.551849 173.810318,229.974594 
	C164.739731,242.704544 155.265427,255.146820 145.657715,267.944763 
z"/>
<path fill="#000000" opacity="1.000000" stroke="none" 
	d="
M181.386017,280.342651 
	C180.511993,281.589996 179.856735,282.551727 179.180679,283.498627 
	C173.808182,291.023376 167.052750,292.460938 159.978149,287.589539 
	C152.811783,282.654968 150.884079,273.637939 155.797516,266.707611 
	C161.756653,258.302399 167.943283,250.057953 174.064484,241.768311 
	C179.208160,234.802460 186.330688,233.552078 193.006775,238.386993 
	C199.663315,243.207733 201.594971,252.199158 197.096436,258.651489 
	C192.059906,265.875397 186.773056,272.924835 181.386017,280.342651 
z"/>
<path fill="#000000" opacity="1.000000" stroke="none" 
	d="
M204.649338,307.116150 
	C197.621933,309.137329 191.858902,307.117188 187.686005,301.446136 
	C183.694763,296.021973 183.575195,290.159119 187.603546,284.383972 
	C191.406815,278.931488 195.357559,273.579163 199.342316,268.256775 
	C202.925934,263.470154 207.808929,262.170502 213.479904,264.170746 
	C221.920609,267.147919 228.051056,278.880432 220.931290,287.337524 
	C215.504486,293.783691 211.958267,301.752686 204.649338,307.116150 
z"/>
<path fill="#000000" opacity="1.000000" stroke="none" 
	d="
M99.714279,228.627258 
	C99.691452,217.505829 106.868256,211.010147 114.125641,205.046783 
	C118.076675,201.800247 124.904366,204.034271 129.458557,208.587204 
	C134.156158,213.283524 135.637100,220.218445 132.392868,225.467148 
	C129.429245,230.261902 126.096039,234.914246 122.352539,239.119064 
	C117.704788,244.339539 108.248703,242.725464 103.096771,236.227875 
	C101.423851,234.118027 100.270691,231.725632 99.714279,228.627258 
z"/>
</svg>